<svg width="1212" height="244" viewBox="0 0 1212 244" fill="none" xmlns="http://www.w3.org/2000/svg">
<path d="M0 0H1212V244H0V0Z" fill="#3C3C3C"/>
<path d="M744.246 209.183C745.793 206.557 749.592 206.557 751.139 209.183L771.647 243.999H723.738L744.246 209.183Z" fill="#454545"/>
<path d="M793.172 191.605C794.726 189.02 798.473 189.02 800.028 191.605L831.533 243.999H761.666L793.172 191.605Z" fill="#454545"/>
<path d="M872.003 114.295C873.55 111.669 877.349 111.669 878.896 114.295L955.298 244H795.602L872.003 114.295Z" fill="#333333"/>
<path d="M973.81 182.073C975.357 179.446 979.156 179.446 980.703 182.073L1017.18 243.999H937.332L973.81 182.073Z" fill="#333333"/>
<path d="M140.186 114.295C138.639 111.669 134.84 111.669 133.293 114.295L56.8915 244H216.588L140.186 114.295Z" fill="#414141"/>
<path d="M240.995 182.073C239.448 179.446 235.649 179.446 234.102 182.073L197.624 243.999H277.473L240.995 182.073Z" fill="#414141"/>
<path d="M335.815 114.295C334.268 111.669 330.469 111.669 328.922 114.295L252.52 244H412.217L335.815 114.295Z" fill="#333333"/>
<path d="M436.623 182.073C435.076 179.446 431.277 179.446 429.73 182.073L393.252 243.999H473.101L436.623 182.073Z" fill="#333333"/>
<ellipse cx="202" cy="133.453" rx="19" ry="18.9224" fill="#5A5858"/>
<path d="M580.64 213.162L582.603 207.075H583.987L581.146 215H580.113L577.242 207.075H578.626L580.64 213.162ZM589.605 215H588.243V205.969L585.511 206.973V205.742L589.393 204.285H589.605V215ZM593.743 214.29C593.743 214.055 593.812 213.86 593.948 213.704C594.09 213.547 594.3 213.469 594.578 213.469C594.856 213.469 595.066 213.547 595.208 213.704C595.354 213.86 595.428 214.055 595.428 214.29C595.428 214.514 595.354 214.702 595.208 214.854C595.066 215.005 594.856 215.081 594.578 215.081C594.3 215.081 594.09 215.005 593.948 214.854C593.812 214.702 593.743 214.514 593.743 214.29ZM604.217 210.452C604.217 212.039 603.946 213.218 603.404 213.989C602.862 214.761 602.015 215.146 600.862 215.146C599.725 215.146 598.882 214.771 598.335 214.019C597.789 213.262 597.505 212.134 597.486 210.635V208.826C597.486 207.258 597.757 206.094 598.299 205.332C598.841 204.57 599.69 204.189 600.848 204.189C601.995 204.189 602.84 204.558 603.382 205.295C603.924 206.028 604.202 207.161 604.217 208.694V210.452ZM602.862 208.599C602.862 207.451 602.701 206.616 602.378 206.094C602.056 205.566 601.546 205.303 600.848 205.303C600.154 205.303 599.649 205.564 599.332 206.086C599.014 206.609 598.851 207.412 598.841 208.496V210.664C598.841 211.816 599.007 212.668 599.339 213.22C599.676 213.767 600.184 214.041 600.862 214.041C601.531 214.041 602.027 213.782 602.349 213.264C602.676 212.747 602.847 211.931 602.862 210.818V208.599Z" fill="#8D8D8D"/>
</svg>
