<svg width="36" height="21" viewBox="0 0 36 21" fill="none" xmlns="http://www.w3.org/2000/svg">
<g clip-path="url(#clip0)">
<path fill-rule="evenodd" clip-rule="evenodd" d="M28.1273 10.9091C28.6524 11.2075 29.0044 11.4077 29 11.4077C28.557 12.0538 27.6807 12.1044 27.6492 12.1022C27.8772 12.375 28.2784 12.8634 28.3737 13.0042C27.501 13.3973 26.3416 13.7742 25.9031 13.9157C25.8434 13.934 25.7843 13.9538 25.7256 13.9751C25.7 13.9546 24.1182 13.1259 21.3051 13.4361C20.3716 12.1213 18.9108 11.2383 17.7499 11.1562C17.7499 11.1562 21.748 14.1409 21.2574 22C19.9213 17.5817 16.746 12.1132 10.3081 11.3322C11.3666 10.3328 12.7112 9.68943 14.1537 9.49227C11.048 8.39007 7 9.52307 7 9.52307C7 9.52307 7.80373 8.37173 9.58646 7.41253C10.8053 6.75093 12.1237 6.29221 13.49 6.0544C13.49 6.0544 12.2859 5.18907 8.1044 6.12773C9.72629 4.77254 11.6958 3.89955 13.7892 3.608C13.7959 2.90591 13.9672 2.21518 14.2893 1.59133C14.6139 0.963272 15.0792 0.418674 15.6489 0C16.2523 1.26795 16.9502 2.48873 17.7367 3.652C17.7389 3.6564 17.9743 3.76567 18.3424 3.9358C19.5466 4.49313 22.1704 5.70607 22.6559 6.06393C23.3452 6.57653 23.5227 7.5372 23.6415 8.18327L23.665 8.30793C23.676 8.37393 26.6181 10.0489 28.1273 10.9091V10.9091ZM20.134 7.92293L20.1068 7.93027C21.5053 8.93347 22.3325 8.82053 22.3325 8.82053C22.3325 8.82053 22.3252 7.81147 21.9629 7.678C21.5896 7.54013 20.3422 7.86867 20.134 7.92293Z" fill="#D6D6D6"/>
<path d="M0 11.6753V10.1171C0.827816 10.1171 1.32451 9.81644 1.49007 9.21505C1.65563 8.61367 1.73841 7.86535 1.73841 6.97011V4.82767C1.73841 2.42213 2.81113 1.21936 4.95655 1.21936V2.71599C4.23911 2.76383 3.78726 2.95859 3.601 3.30029C3.42164 3.63515 3.33196 4.44497 3.33196 5.72975V7.20588C3.33196 8.31981 3.21813 9.15697 2.99049 9.71735C2.76284 10.2777 2.36617 10.6707 1.8005 10.8962C2.36617 11.1217 2.76284 11.5181 2.99049 12.0853C3.21813 12.6457 3.33196 13.4828 3.33196 14.5968V16.0626C3.33196 17.3543 3.42164 18.1675 3.601 18.5024C3.78726 18.8372 4.23911 19.032 4.95655 19.0867V20.573C2.81113 20.573 1.73841 19.3703 1.73841 16.9647V14.8223C1.73841 13.9817 1.68323 13.3325 1.57285 12.8746C1.46248 12.4167 1.28656 12.1024 1.04512 11.9315C0.81057 11.7607 0.462197 11.6753 0 11.6753Z" fill="#00DEFA"/>
<path d="M35.2291 12.102V10.5439C34.4013 10.5439 33.9046 10.2432 33.739 9.6418C33.5735 9.04041 33.4907 8.2921 33.4907 7.39685V5.25442C33.4907 2.84887 32.418 1.6461 30.2726 1.6461V3.14273C30.99 3.19057 31.4418 3.38534 31.6281 3.72703C31.8075 4.0619 31.8971 4.87172 31.8971 6.1565V7.63262C31.8971 8.74655 32.011 9.58371 32.2386 10.1441C32.4663 10.7045 32.8629 11.0974 33.4286 11.3229C32.8629 11.5485 32.4663 11.9448 32.2386 12.512C32.011 13.0724 31.8971 13.9096 31.8971 15.0235V16.4894C31.8971 17.781 31.8075 18.5942 31.6281 18.9291C31.4418 19.264 30.99 19.4587 30.2726 19.5134V20.9998C32.418 20.9998 33.4907 19.797 33.4907 17.3915V15.249C33.4907 14.4085 33.5459 13.7592 33.6563 13.3014C33.7666 12.8435 33.9425 12.5291 34.184 12.3583C34.4185 12.1874 34.7669 12.102 35.2291 12.102Z" fill="#00DEFA"/>
</g>
<defs>
<clipPath id="clip0">
<rect width="36" height="21" fill="white"/>
</clipPath>
</defs>
</svg>
