<svg width="23" height="17" viewBox="0 0 23 17" fill="none" xmlns="http://www.w3.org/2000/svg">
<path d="M20.0424 4.23485C20.0424 4.44659 20.0424 4.55246 20.0424 4.7642C20.0424 10.3754 15.3658 16.9394 7.01483 16.9394C4.45386 16.9394 2.00424 16.1983 0 15.0337C0.33404 15.0337 0.668079 15.1396 1.11347 15.1396C3.22905 15.1396 5.23329 14.5044 6.79214 13.3398C4.7879 13.3398 3.1177 12.0693 2.56097 10.3754C2.78366 10.3754 3.1177 10.4812 3.45174 10.4812C3.89713 10.4812 4.23117 10.4812 4.67656 10.3754C2.56097 9.95189 1.00212 8.25795 1.00212 6.14053V5.92879C1.6702 6.2464 2.33828 6.45814 3.1177 6.45814C1.89289 5.71704 1.11347 4.34072 1.11347 2.85852C1.11347 2.11742 1.33616 1.37633 1.78154 0.741098C4.00847 3.28201 7.34887 5.08182 11.246 5.18769C11.1347 4.87008 11.1347 4.55246 11.1347 4.23485C11.1347 1.90568 13.1389 0 15.6999 0C17.036 0 18.1495 0.529356 19.0403 1.37633C20.0424 1.16458 21.0445 0.84697 21.9353 0.317614C21.6012 1.27045 20.8218 2.11742 19.931 2.64678C20.8218 2.54091 21.7126 2.32917 22.6033 2.01155C21.7126 2.85852 20.9332 3.59962 20.0424 4.23485Z" fill="#888888"/>
</svg>
