<?xml version="1.0" encoding="UTF-8" standalone="no"?>
<svg
   xmlns:dc="http://purl.org/dc/elements/1.1/"
   xmlns:cc="http://creativecommons.org/ns#"
   xmlns:rdf="http://www.w3.org/1999/02/22-rdf-syntax-ns#"
   xmlns:svg="http://www.w3.org/2000/svg"
   xmlns="http://www.w3.org/2000/svg"
   xmlns:sodipodi="http://sodipodi.sourceforge.net/DTD/sodipodi-0.dtd"
   xmlns:inkscape="http://www.inkscape.org/namespaces/inkscape"
   width="100"
   height="100"
   viewBox="0 0 100 100"
   version="1.1"
   id="svg1374"
   inkscape:version="1.0 (4035a4fb49, 2020-05-01)"
   sodipodi:docname="syndicate.svg">
  <title
     id="title867">Marauder Commander Icon</title>
  <defs
     id="defs1368" />
  <sodipodi:namedview
     id="base"
     pagecolor="#d9d9d9"
     bordercolor="#666666"
     borderopacity="1.0"
     inkscape:pageopacity="0.50196078"
     inkscape:pageshadow="2"
     inkscape:zoom="5.6568542"
     inkscape:cx="78.360832"
     inkscape:cy="64.409484"
     inkscape:document-units="px"
     inkscape:current-layer="layer1"
     inkscape:document-rotation="0"
     showgrid="false"
     units="px"
     inkscape:window-width="2560"
     inkscape:window-height="1377"
     inkscape:window-x="2552"
     inkscape:window-y="-8"
     inkscape:window-maximized="1"
     scale-x="1" />
  <metadata
     id="metadata1371">
    <rdf:RDF>
      <cc:Work
         rdf:about="">
        <dc:format>image/svg+xml</dc:format>
        <dc:type
           rdf:resource="http://purl.org/dc/dcmitype/StillImage" />
        <dc:title>Syndicate Icon</dc:title>
        <dc:creator>
          <cc:Agent>
            <dc:title>Paul (pvdstel)</dc:title>
          </cc:Agent>
        </dc:creator>
      </cc:Work>
    </rdf:RDF>
  </metadata>
  <g
     inkscape:label="Layer 1"
     inkscape:groupmode="layer"
     id="layer1">
    <ellipse
       style="fill:#ffffff;fill-opacity:1;stroke:none;stroke-width:1.00157;stroke-linejoin:round;stop-color:#000000"
       id="path868"
       cx="50.353733"
       cy="54.718391"
       rx="43.436836"
       ry="43.42997" />
    <path
       sodipodi:type="star"
       style="fill:none;fill-opacity:1;stroke:#be79d3;stroke-width:2.12124;stroke-linecap:round;stroke-linejoin:miter;stroke-miterlimit:4;stroke-dasharray:none;stroke-opacity:1;stop-color:#000000"
       id="path878"
       sodipodi:sides="3"
       sodipodi:cx="49.674255"
       sodipodi:cy="60.987965"
       sodipodi:r1="57.015911"
       sodipodi:r2="28.507956"
       sodipodi:arg1="0.52359878"
       sodipodi:arg2="1.5707963"
       inkscape:flatsided="true"
       inkscape:rounded="0"
       inkscape:randomized="0"
       d="m 99.051483,89.49592 -98.75445519,0 L 49.674256,3.9720535 Z"
       inkscape:transform-center-y="-13.641318"
       transform="matrix(0.92888596,0,0,0.95701828,3.8582815,0.15171128)" />
    <path
       id="path839"
       style="fill:#be79d3;fill-opacity:1;stroke:none;stroke-width:1.00157;stroke-linejoin:round;stop-color:#000000"
       d="M 38.272861,13.001874 A 43.436836,43.429968 0 0 0 6.9168954,54.718394 43.436836,43.429968 0 0 0 50.353731,98.148362 43.436836,43.429968 0 0 0 93.790567,54.718394 43.436836,43.429968 0 0 0 62.440964,13.003995 36.800869,36.79505 0 0 1 87.154149,47.758573 36.800869,36.79505 0 0 1 50.353731,84.553171 36.800869,36.79505 0 0 1 13.553314,47.758573 36.800869,36.79505 0 0 1 38.272861,13.001874 Z" />
    <path
       id="path963"
       style="color:#000000;font-style:normal;font-variant:normal;font-weight:normal;font-stretch:normal;font-size:medium;line-height:normal;font-family:sans-serif;font-variant-ligatures:normal;font-variant-position:normal;font-variant-caps:normal;font-variant-numeric:normal;font-variant-alternates:normal;font-variant-east-asian:normal;font-feature-settings:normal;font-variation-settings:normal;text-indent:0;text-align:start;text-decoration:none;text-decoration-line:none;text-decoration-style:solid;text-decoration-color:#000000;letter-spacing:normal;word-spacing:normal;text-transform:none;writing-mode:lr-tb;direction:ltr;text-orientation:mixed;dominant-baseline:auto;baseline-shift:baseline;text-anchor:start;white-space:normal;shape-padding:0;shape-margin:0;inline-size:0;clip-rule:nonzero;display:inline;overflow:visible;visibility:visible;opacity:1;isolation:auto;mix-blend-mode:normal;color-interpolation:sRGB;color-interpolation-filters:linearRGB;solid-color:#000000;solid-opacity:1;vector-effect:none;fill:#be79d3;fill-opacity:1;fill-rule:nonzero;stroke:#ffffff;stroke-width:1;stroke-linecap:round;stroke-linejoin:miter;stroke-miterlimit:4;stroke-dasharray:none;stroke-dashoffset:0;stroke-opacity:1;color-rendering:auto;image-rendering:auto;shape-rendering:auto;text-rendering:auto;enable-background:accumulate;stop-color:#000000;stop-opacity:1"
       d="M 84.46875,12.84375 C 79.319427,15.922144 74.1451,20.953541 68.482422,21.892578 63.292081,18.111547 56.907606,15.875 50,15.875 c -7.314391,0 -14.046215,2.508473 -19.396484,6.701172 -5.647538,-0.955509 -10.809689,-5.973551 -15.947266,-9.044922 3.405794,5.175269 8.414006,10.397858 9.107422,16.429688 -3.018564,4.534834 -4.895394,9.892006 -5.212891,15.662109 L 1.625,49.625 19.328125,54.529297 C 20.318645,58.782258 22.165931,62.7077 24.6875,66.107422 23.338825,73.266507 13.852065,84.607668 10.40625,89.84375 15.836167,86.59761 25.788459,74.973212 32.486328,73.548828 37.496727,76.91091 43.521172,78.875 50,78.875 c 6.454594,0 12.454867,-1.948643 17.449219,-5.289062 C 74.52084,75.917426 85.546391,87.001585 90.71875,90.09375 87.451109,85.128412 77.0672,74.30052 74.576172,67.027344 77.456341,63.42422 79.561402,59.177207 80.642578,54.537109 L 98.375,49.625 81.417969,45.615234 C 81.070996,39.35555 78.891706,33.582914 75.412109,28.818359 76.296664,22.977465 81.148567,17.888928 84.46875,12.84375 Z M 50,18.875 c 6.039129,0 11.632537,1.876719 16.238281,5.072266 0.01071,3.693404 -1.778752,6.291116 -4.457031,11.583984 5.34082,-2.927337 7.669022,-4.733311 11.539062,-4.544922 C 76.580391,35.620639 78.5,41.269441 78.5,47.375 c 0,6.260617 -2.017026,12.04165 -5.429688,16.740234 -4.506614,0.572076 -6.752655,-1.287419 -12.539062,-4.458984 2.771546,5.477184 4.591568,8.068613 4.449219,11.974609 C 60.629365,74.320882 55.498915,75.875 50,75.875 c -5.979717,0 -11.523839,-1.838301 -16.103516,-4.976562 0.171378,-3.392796 1.913287,-5.984487 4.447266,-10.992188 -5.166863,2.83199 -7.516665,4.609936 -11.167969,4.552734 C 23.61094,59.700709 21.5,53.787612 21.5,47.375 c 0,-5.809987 1.736013,-11.208398 4.712891,-15.710938 3.630271,-0.04463 5.981405,1.73224 11.130859,4.554688 C 34.650235,30.895773 32.85526,28.299379 32.886719,24.572266 37.64997,20.994226 43.574325,18.875 50,18.875 Z" />
    <path
       style="fill:none;stroke:#be79d3;stroke-width:4;stroke-linecap:butt;stroke-linejoin:round;stroke-miterlimit:4;stroke-dasharray:none;stroke-opacity:1"
       d="m 51.018343,38.249616 c 4.989185,6.464779 3.770402,12.659997 0.163265,17.933928 -4.604863,-6.165803 -4.459063,-12.042411 -0.163265,-17.933928 z"
       id="path870"
       sodipodi:nodetypes="ccc" />
    <path
       id="path966"
       style="fill:#be79d3;fill-opacity:1;stroke:#ffffff;stroke-width:1px;stroke-linecap:butt;stroke-linejoin:miter;stroke-opacity:1"
       d="M 49.773438,1.2500003 C 48.18727,23.449731 46.357773,29.549113 41.962891,35.064453 c -2.389595,1.32494 -4.617592,3.000414 -6.742188,4.638672 -4.499646,3.469641 -6.691547,6.736467 -10.492187,7.287109 -2.589639,0.370034 -2.607516,4.284872 -0.02148,4.681641 2.905976,0.451008 5.523354,4.125991 10.427735,7.990234 1.315146,1.036225 2.674269,2.080979 4.072265,3.0625 C 44.245167,66.790473 48.320621,82.973981 50,99.59099 51.59099,83.062369 54.819746,69.135717 60.123047,64.804688 c 2.490002,-1.515073 4.739867,-3.480888 6.845703,-5.375 4.23537,-3.80954 5.597365,-7.315837 8.841797,-7.869141 2.536668,-0.435363 2.51563,-4.263486 -0.02539,-4.669922 C 72.435811,46.360228 70.762209,43.105187 66.25,39.65625 64.247405,38.12555 62.135981,36.572977 59.888672,35.298828 53.357449,31.50519 52.550294,23.096644 49.773438,1.2500003 Z M 50.6875,37.277344 c 4.202525,0.0064 8.500527,2.836611 12.902344,6.201172 2.697367,2.061753 5.40395,4.242468 8.279297,5.875 -2.78065,1.807505 -5.317555,4.219586 -7.839844,6.488281 -4.125876,3.711056 -8.135844,6.81387 -12.388672,6.902344 -4.191012,0.08719 -9.014635,-3.096401 -13.792969,-6.861329 -2.860568,-2.253886 -5.636331,-4.618028 -8.501953,-6.396484 3.02912,-1.649622 5.826959,-3.875798 8.548828,-5.974609 4.414376,-3.403889 8.601734,-6.240761 12.792969,-6.234375 z"
       sodipodi:nodetypes="ccsccscccsccsccsscssscss" />
    <ellipse
       style="fill:none;fill-opacity:1;stroke:#be79d3;stroke-width:3;stroke-linecap:round;stroke-linejoin:round;stroke-miterlimit:4;stroke-dasharray:none;stroke-opacity:1;stop-color:#000000"
       id="path874"
       cx="51.025494"
       cy="48.090702"
       rx="12.488118"
       ry="12.570126" />
  </g>
</svg>
