<svg width="36" height="21" viewBox="0 0 36 21" fill="none" xmlns="http://www.w3.org/2000/svg">
<path d="M14.4574 3.9404L8.92166 0.000488281L9.68676 8.0613L7.34644 11.1102L8.42659 14.0617C9.56675 14.4654 10.6019 15.0501 11.502 15.7741C11.622 14.9109 11.8021 13.5744 11.9521 12.9757L10.1668 13.3238C10.7069 9.94076 12.2521 6.76656 14.4574 3.9404Z" fill="#D6D6D6"/>
<path d="M16.3523 11.818L12.0767 9.82715C13.0068 11.9433 13.3068 12.2496 16.3523 11.818Z" fill="#D6D6D6"/>
<path d="M25.558 8.06081L26.3081 0C21.0874 3.71716 19.3921 4.26012 17.4269 8.85436L20.1422 8.36709C16.7818 11.6527 14.7265 16.0242 14.3364 19.435L15.0115 20.8829H20.2172C21.0274 19.1566 22.2425 15.69 26.8032 14.0612L27.8833 11.1097L25.558 8.06081ZM17.6219 19.2401L15.9717 16.9987H19.2721L17.6219 19.2401ZM18.8221 11.8197L23.0977 9.8289C22.1675 11.945 21.8675 12.2513 18.8221 11.8197Z" fill="#D6D6D6"/>
<path d="M0 11.6753V10.1171C0.827816 10.1171 1.32451 9.81644 1.49007 9.21505C1.65563 8.61367 1.73841 7.86535 1.73841 6.97011V4.82767C1.73841 2.42213 2.81113 1.21936 4.95655 1.21936V2.71599C4.23911 2.76383 3.78726 2.95859 3.601 3.30029C3.42164 3.63515 3.33196 4.44497 3.33196 5.72975V7.20588C3.33196 8.31981 3.21813 9.15697 2.99049 9.71735C2.76284 10.2777 2.36617 10.6707 1.8005 10.8962C2.36617 11.1217 2.76284 11.5181 2.99049 12.0853C3.21813 12.6457 3.33196 13.4828 3.33196 14.5968V16.0626C3.33196 17.3543 3.42164 18.1675 3.601 18.5024C3.78726 18.8372 4.23911 19.032 4.95655 19.0867V20.573C2.81113 20.573 1.73841 19.3703 1.73841 16.9647V14.8223C1.73841 13.9817 1.68323 13.3325 1.57285 12.8746C1.46248 12.4167 1.28656 12.1024 1.04512 11.9315C0.81057 11.7607 0.462197 11.6753 0 11.6753Z" fill="#00DEFA"/>
<path d="M35.2291 12.102V10.5439C34.4013 10.5439 33.9046 10.2432 33.739 9.6418C33.5735 9.04041 33.4907 8.2921 33.4907 7.39685V5.25442C33.4907 2.84887 32.418 1.6461 30.2726 1.6461V3.14273C30.99 3.19057 31.4418 3.38534 31.6281 3.72703C31.8075 4.0619 31.8971 4.87172 31.8971 6.1565V7.63262C31.8971 8.74655 32.011 9.58371 32.2386 10.1441C32.4663 10.7045 32.8629 11.0974 33.4286 11.3229C32.8629 11.5485 32.4663 11.9448 32.2386 12.512C32.011 13.0724 31.8971 13.9096 31.8971 15.0235V16.4894C31.8971 17.781 31.8075 18.5942 31.6281 18.9291C31.4418 19.264 30.99 19.4587 30.2726 19.5134V20.9998C32.418 20.9998 33.4907 19.797 33.4907 17.3915V15.249C33.4907 14.4085 33.5459 13.7592 33.6563 13.3014C33.7666 12.8435 33.9425 12.5291 34.184 12.3583C34.4185 12.1874 34.7669 12.102 35.2291 12.102Z" fill="#00DEFA"/>
</svg>
