<svg width="1212" height="243" viewBox="0 0 1212 243" fill="none" xmlns="http://www.w3.org/2000/svg">
<path d="M0 0.10022H1211.18V242.9H0V0.10022Z" fill="#3C3C3C"/>
<path d="M788.446 207.282C790.034 204.952 793.469 204.952 795.057 207.282L819.33 242.899H764.172L788.446 207.282Z" fill="#454545"/>
<path d="M844.775 189.81C846.366 187.522 849.75 187.522 851.342 189.81L888.278 242.9H807.839L844.775 189.81Z" fill="#454545"/>
<path d="M935.534 112.861C937.122 110.531 940.557 110.531 942.145 112.861L1030.77 242.9H846.909L935.534 112.861Z" fill="#333333"/>
<path d="M1052.75 180.305C1054.33 177.975 1057.77 177.975 1059.36 180.305L1102.02 242.899H1010.09L1052.75 180.305Z" fill="#333333"/>
<path d="M160.736 112.861C159.148 110.531 155.713 110.531 154.125 112.861L65.5 242.9H249.361L160.736 112.861Z" fill="#414141"/>
<path d="M276.799 180.305C275.211 177.975 271.776 177.975 270.188 180.305L227.528 242.899H319.458L276.799 180.305Z" fill="#414141"/>
<path d="M385.966 112.861C384.379 110.531 380.943 110.531 379.356 112.861L290.731 242.9H474.591L385.966 112.861Z" fill="#333333"/>
<path d="M502.028 180.305C500.44 177.975 497.005 177.975 495.417 180.305L452.758 242.899H544.688L502.028 180.305Z" fill="#333333"/>
<ellipse cx="232.566" cy="132.896" rx="21.875" ry="18.8293" fill="#5A5858"/>
</svg>